<svg width="35" height="30" viewBox="0 0 35 30" fill="none" xmlns="http://www.w3.org/2000/svg">
<path d="M29.9999 28.2955H6.36276V27.1769H29.9999V28.2955Z" fill="white"/>
<path d="M29.9999 19.7195H6.36276V18.6009H29.9999V19.7195Z" fill="white"/>
<path d="M29.9999 10.7708H6.36276V9.65222H29.9999V10.7708Z" fill="white"/>
<path d="M1.93123 26.1006C2.99782 26.1006 3.86246 26.9735 3.86246 28.0503C3.86246 29.1271 2.99782 30 1.93123 30C0.864641 30 0 29.1271 0 28.0503C0 26.9735 0.864641 26.1006 1.93123 26.1006Z" fill="white"/>
<path d="M1.93123 17.5246C2.99782 17.5246 3.86246 18.3976 3.86246 19.4744C3.86246 20.5512 2.99782 21.4241 1.93123 21.4241C0.864641 21.4241 0 20.5512 0 19.4744C0 18.3976 0.864641 17.5246 1.93123 17.5246Z" fill="white"/>
<path d="M1.93123 8.82451C2.99782 8.82451 3.86246 9.69743 3.86246 10.7742C3.86246 11.851 2.99782 12.7239 1.93123 12.7239C0.864641 12.7239 0 11.851 0 10.7742C0 9.69743 0.864641 8.82451 1.93123 8.82451Z" fill="white"/>
</svg>
