<svg width="30" height="15" viewBox="0 0 30 15" fill="none" xmlns="http://www.w3.org/2000/svg">
<path d="M0.937476 1.12H29.0624C29.58 1.12 29.9999 0.869094 29.9999 0.56C29.9999 0.25086 29.5799 0 29.0624 0H0.937476C0.419955 0 0 0.250906 0 0.56C0 0.869094 0.420033 1.12 0.937476 1.12Z" fill="white"/>
<path d="M29.0624 6.5625H0.937476C0.419955 6.5625 0 6.81341 0 7.1225C0 7.43159 0.420033 7.6825 0.937476 7.6825H29.0624C29.58 7.6825 29.9999 7.43159 29.9999 7.1225C29.9999 6.81341 29.58 6.5625 29.0624 6.5625Z" fill="white"/>
<path d="M29.0624 13.1249H10.3125C9.79494 13.1249 9.37498 13.3758 9.37498 13.6849C9.37498 13.9941 9.79502 14.2449 10.3125 14.2449H29.0624C29.58 14.2449 29.9999 13.994 29.9999 13.6849C30 13.3758 29.58 13.1249 29.0624 13.1249Z" fill="white"/>
</svg>
