<svg width="22" height="40" viewBox="0 0 22 40" fill="none" xmlns="http://www.w3.org/2000/svg">
<path d="M18 0H3.33333C1.49333 0.00216667 0.00216667 1.49333 0 3.33333V36.6667C0.00216667 38.5067 1.49333 39.9978 3.33333 40H18C19.84 39.9978 21.3312 38.5067 21.3333 36.6667V3.33333C21.3312 1.49333 19.84 0.00216667 18 0ZM8.01733 38.6667H3.33333C2.22875 38.6667 1.33333 37.7713 1.33333 36.6667V34.6667H8.01733C7.10558 35.8442 7.10558 37.4892 8.01733 38.6667ZM10.6667 38.6667C9.56208 38.6667 8.66667 37.7713 8.66667 36.6667C8.66667 35.5621 9.56208 34.6667 10.6667 34.6667C11.7712 34.6667 12.6667 35.5621 12.6667 36.6667C12.6667 37.7713 11.7712 38.6667 10.6667 38.6667ZM20 36.6667C20 37.7713 19.1046 38.6667 18 38.6667H13.316C14.2277 37.4892 14.2277 35.8442 13.316 34.6667H20V36.6667ZM20 33.3333H1.33333V7.33333H20V33.3333ZM20 6H1.33333V3.33333C1.33333 2.22875 2.22875 1.33333 3.33333 1.33333H18C19.1046 1.33333 20 2.22875 20 3.33333V6Z" fill="#00C158"/>
</svg>
